<svg width="31" height="30" viewBox="0 0 31 30" fill="none" xmlns="http://www.w3.org/2000/svg">
<path d="M20.3 15C20.3 15.9493 20.0185 16.8774 19.491 17.6667C18.9636 18.4561 18.214 19.0713 17.3369 19.4346C16.4598 19.7979 15.4947 19.893 14.5636 19.7078C13.6324 19.5225 12.7772 19.0654 12.1059 18.3941C11.4346 17.7228 10.9774 16.8675 10.7922 15.9364C10.607 15.0053 10.7021 14.0402 11.0654 13.1631C11.4287 12.286 12.0439 11.5364 12.8333 11.0089C13.6226 10.4815 14.5506 10.2 15.5 10.2C16.7718 10.2039 17.9904 10.7109 18.8897 11.6103C19.789 12.5096 20.296 13.7282 20.3 15ZM30.5 8.39999V21.6C30.5 23.8278 29.615 25.9644 28.0397 27.5397C26.4644 29.115 24.3278 30 22.1 30H8.89999C6.67218 30 4.53561 29.115 2.9603 27.5397C1.385 25.9644 0.5 23.8278 0.5 21.6V8.39999C0.5 6.17218 1.385 4.03561 2.9603 2.4603C4.53561 0.884997 6.67218 0 8.89999 0H22.1C24.3278 0 26.4644 0.884997 28.0397 2.4603C29.615 4.03561 30.5 6.17218 30.5 8.39999ZM22.7 15C22.7 13.576 22.2777 12.1839 21.4866 10.9999C20.6954 9.81585 19.5709 8.89301 18.2553 8.34806C16.9397 7.80311 15.492 7.66053 14.0953 7.93834C12.6987 8.21616 11.4158 8.90189 10.4088 9.90882C9.40189 10.9158 8.71616 12.1987 8.43834 13.5953C8.16053 14.992 8.30311 16.4397 8.84806 17.7553C9.39301 19.0709 10.3159 20.1954 11.4999 20.9866C12.6839 21.7777 14.076 22.2 15.5 22.2C17.4095 22.2 19.2409 21.4414 20.5912 20.0912C21.9414 18.7409 22.7 16.9095 22.7 15ZM25.1 7.2C25.1 6.84399 24.9944 6.49598 24.7966 6.19997C24.5988 5.90396 24.3177 5.67325 23.9888 5.53701C23.6599 5.40078 23.298 5.36513 22.9488 5.43458C22.5997 5.50404 22.2789 5.67547 22.0272 5.9272C21.7755 6.17894 21.604 6.49967 21.5346 6.84883C21.4651 7.198 21.5008 7.55992 21.637 7.88882C21.7732 8.21773 22.004 8.49885 22.3 8.69664C22.596 8.89443 22.944 8.99999 23.3 8.99999C23.7774 8.99999 24.2352 8.81035 24.5728 8.47279C24.9103 8.13522 25.1 7.67738 25.1 7.2Z" fill="#541212"/>
</svg>
